<?xml version="1.0" encoding="utf-8"?>
<!-- Generator: Adobe Illustrator 16.0.0, SVG Export Plug-In . SVG Version: 6.00 Build 0)  -->
<!DOCTYPE svg PUBLIC "-//W3C//DTD SVG 1.1//EN" "http://www.w3.org/Graphics/SVG/1.1/DTD/svg11.dtd">
<svg version="1.1" id="Layer_1" xmlns="http://www.w3.org/2000/svg" xmlns:xlink="http://www.w3.org/1999/xlink" x="0px" y="0px"
	 width="88px" height="15px" viewBox="0 0 88 15" enable-background="new 0 0 88 15" xml:space="preserve">
<g>
	<g>
		<path fill="#FFFFFF" d="M23.308,10.947V1.273h1.186V4.79h0.027c0.512-0.741,1.212-1.077,2.034-1.092
			c1.873,0,2.937,1.536,2.937,3.517c0,1.684-0.7,3.934-3.099,3.934c-1.198,0-1.697-0.686-1.939-1.076h-0.027v0.875H23.308z
			 M26.339,4.764c-1.711,0-1.899,1.845-1.899,2.99c0,1.873,1.172,2.371,1.927,2.371c1.293,0,1.899-1.171,1.899-2.722
			C28.266,6.501,28.172,4.764,26.339,4.764z"/>
		<path fill="#FFFFFF" d="M30.179,6.044c0.054-1.685,1.172-2.346,2.91-2.346c0.566,0,2.614,0.162,2.614,1.968v4.055
			c0,0.296,0.148,0.418,0.391,0.418c0.107,0,0.256-0.027,0.391-0.053v0.861c-0.202,0.053-0.377,0.134-0.646,0.134
			c-1.051,0-1.213-0.539-1.254-1.076c-0.457,0.498-1.172,1.144-2.546,1.144c-1.293,0-2.209-0.821-2.209-2.033
			c0-0.594,0.175-1.968,2.142-2.21l1.954-0.242c0.283-0.027,0.619-0.136,0.619-0.836c0-0.74-0.539-1.145-1.657-1.145
			c-1.347,0-1.536,0.821-1.616,1.361H30.179z M34.518,7.35c-0.189,0.148-0.485,0.256-1.954,0.445
			c-0.579,0.081-1.509,0.256-1.509,1.145c0,0.769,0.391,1.226,1.28,1.226c1.104,0,2.183-0.714,2.183-1.656V7.35z"/>
		<path fill="#FFFFFF" d="M42.775,10.947h-1.185V6.608c0-1.226-0.351-1.845-1.509-1.845c-0.674,0-1.859,0.431-1.859,2.344v3.84
			h-1.186V3.901h1.118v0.996h0.026c0.257-0.377,0.917-1.199,2.129-1.199c1.091,0,2.465,0.445,2.465,2.453V10.947z"/>
		<path fill="#FFFFFF" d="M49.701,10.947h-1.118V9.977h-0.027c-0.512,0.957-1.319,1.172-2.007,1.172c-2.398,0-3.1-2.25-3.1-3.934
			c0-1.98,1.064-3.517,2.938-3.517c1.28,0,1.819,0.796,2.102,1.199h0.027V1.273h1.186V10.947z M46.576,10.125
			c0.755,0,1.926-0.498,1.926-2.371c0-1.146-0.189-2.99-1.9-2.99c-1.831,0-1.926,1.737-1.926,2.64
			C44.676,8.954,45.282,10.125,46.576,10.125z"/>
		<path fill="#FFFFFF" d="M55.616,6.272c-0.148-0.943-0.674-1.509-1.671-1.509c-1.468,0-1.94,1.4-1.94,2.653
			c0,1.213,0.297,2.708,1.926,2.708c0.797,0,1.482-0.593,1.686-1.671h1.144c-0.12,1.118-0.808,2.694-2.868,2.694
			c-1.981,0-3.153-1.495-3.153-3.528c0-2.183,1.052-3.922,3.383-3.922c1.845,0,2.546,1.349,2.639,2.574H55.616z"/>
		<path fill="#FFFFFF" d="M57.232,6.044c0.055-1.685,1.173-2.346,2.909-2.346c0.567,0,2.614,0.162,2.614,1.968v4.055
			c0,0.296,0.149,0.418,0.391,0.418c0.108,0,0.257-0.027,0.392-0.053v0.861c-0.202,0.053-0.378,0.134-0.646,0.134
			c-1.051,0-1.213-0.539-1.254-1.076c-0.458,0.498-1.172,1.144-2.547,1.144c-1.292,0-2.208-0.821-2.208-2.033
			c0-0.594,0.176-1.968,2.142-2.21l1.953-0.242c0.283-0.027,0.62-0.136,0.62-0.836c0-0.74-0.539-1.145-1.657-1.145
			c-1.348,0-1.535,0.821-1.616,1.361H57.232z M61.57,7.35c-0.188,0.148-0.484,0.256-1.954,0.445
			c-0.578,0.081-1.507,0.256-1.507,1.145c0,0.769,0.389,1.226,1.278,1.226c1.105,0,2.183-0.714,2.183-1.656V7.35z"/>
		<path fill="#FFFFFF" d="M64.091,3.901h1.118v0.996h0.026c0.256-0.377,0.862-1.199,2.129-1.199s1.671,0.769,1.873,1.146
			c0.593-0.659,1.064-1.146,2.155-1.146c0.755,0,2.183,0.392,2.183,2.372v4.877H72.39V6.394c0-0.971-0.296-1.63-1.308-1.63
			c-0.995,0-1.657,0.942-1.657,1.886v4.298h-1.186V6.07c0-0.593-0.229-1.307-1.104-1.307c-0.673,0-1.858,0.431-1.858,2.344v3.84
			h-1.186V3.901z"/>
		<path fill="#FFFFFF" d="M74.545,3.901h1.118v0.996h0.028c0.282-0.403,0.821-1.199,2.1-1.199c1.875,0,2.938,1.536,2.938,3.517
			c0,1.684-0.699,3.934-3.098,3.934c-0.944,0-1.562-0.444-1.873-0.942H75.73v3.53h-1.186V3.901z M77.604,10.125
			c1.294,0,1.9-1.171,1.9-2.722c0-0.902-0.095-2.64-1.928-2.64c-1.711,0-1.899,1.845-1.899,2.99
			C75.677,9.627,76.849,10.125,77.604,10.125z"/>
	</g>
	<polygon fill="#FFFFFF" points="18.778,10.947 7.271,10.947 11.748,1.264 23.254,1.264 	"/>
</g>
<rect opacity="0" width="88" height="15"/>
</svg>
