<?xml version="1.0" encoding="utf-8"?>
<!-- Generator: Adobe Illustrator 16.0.0, SVG Export Plug-In . SVG Version: 6.00 Build 0)  -->
<!DOCTYPE svg PUBLIC "-//W3C//DTD SVG 1.1//EN" "http://www.w3.org/Graphics/SVG/1.1/DTD/svg11.dtd">
<svg version="1.1" id="Calque_1" xmlns="http://www.w3.org/2000/svg" xmlns:xlink="http://www.w3.org/1999/xlink" x="0px" y="0px"
	 width="92.984px" height="53.006px" viewBox="0 0 92.984 53.006" enable-background="new 0 0 92.984 53.006" xml:space="preserve">
<metadata><?xpacket begin="﻿" id="W5M0MpCehiHzreSzNTczkc9d"?>
<x:xmpmeta xmlns:x="adobe:ns:meta/" x:xmptk="Adobe XMP Core 5.3-c011 66.145661, 2012/02/06-14:56:27        ">
   <rdf:RDF xmlns:rdf="http://www.w3.org/1999/02/22-rdf-syntax-ns#">
      <rdf:Description rdf:about=""
            xmlns:dc="http://purl.org/dc/elements/1.1/">
         <dc:format>image/svg+xml</dc:format>
      </rdf:Description>
      <rdf:Description rdf:about=""
            xmlns:xmp="http://ns.adobe.com/xap/1.0/"
            xmlns:xmpGImg="http://ns.adobe.com/xap/1.0/g/img/">
         <xmp:CreatorTool>Adobe Illustrator CS6 (Macintosh)</xmp:CreatorTool>
         <xmp:CreateDate>2014-07-22T22:55:39+02:00</xmp:CreateDate>
         <xmp:ModifyDate>2014-07-22T22:55:39+02:00</xmp:ModifyDate>
         <xmp:MetadataDate>2014-07-22T22:55:39+02:00</xmp:MetadataDate>
         <xmp:Thumbnails>
            <rdf:Alt>
               <rdf:li rdf:parseType="Resource">
                  <xmpGImg:width>256</xmpGImg:width>
                  <xmpGImg:height>148</xmpGImg:height>
                  <xmpGImg:format>JPEG</xmpGImg:format>
                  <xmpGImg:image>/9j/4AAQSkZJRgABAgEASABIAAD/7QAsUGhvdG9zaG9wIDMuMAA4QklNA+0AAAAAABAASAAAAAEA&#xA;AQBIAAAAAQAB/+4ADkFkb2JlAGTAAAAAAf/bAIQABgQEBAUEBgUFBgkGBQYJCwgGBggLDAoKCwoK&#xA;DBAMDAwMDAwQDA4PEA8ODBMTFBQTExwbGxscHx8fHx8fHx8fHwEHBwcNDA0YEBAYGhURFRofHx8f&#xA;Hx8fHx8fHx8fHx8fHx8fHx8fHx8fHx8fHx8fHx8fHx8fHx8fHx8fHx8fHx8f/8AAEQgAlAEAAwER&#xA;AAIRAQMRAf/EAaIAAAAHAQEBAQEAAAAAAAAAAAQFAwIGAQAHCAkKCwEAAgIDAQEBAQEAAAAAAAAA&#xA;AQACAwQFBgcICQoLEAACAQMDAgQCBgcDBAIGAnMBAgMRBAAFIRIxQVEGE2EicYEUMpGhBxWxQiPB&#xA;UtHhMxZi8CRygvElQzRTkqKyY3PCNUQnk6OzNhdUZHTD0uIIJoMJChgZhJRFRqS0VtNVKBry4/PE&#xA;1OT0ZXWFlaW1xdXl9WZ2hpamtsbW5vY3R1dnd4eXp7fH1+f3OEhYaHiImKi4yNjo+Ck5SVlpeYmZ&#xA;qbnJ2en5KjpKWmp6ipqqusra6voRAAICAQIDBQUEBQYECAMDbQEAAhEDBCESMUEFURNhIgZxgZEy&#xA;obHwFMHR4SNCFVJicvEzJDRDghaSUyWiY7LCB3PSNeJEgxdUkwgJChgZJjZFGidkdFU38qOzwygp&#xA;0+PzhJSktMTU5PRldYWVpbXF1eX1RlZmdoaWprbG1ub2R1dnd4eXp7fH1+f3OEhYaHiImKi4yNjo&#xA;+DlJWWl5iZmpucnZ6fkqOkpaanqKmqq6ytrq+v/aAAwDAQACEQMRAD8A9U4q7FXYq7FXYq7FXYq7&#xA;FXYq7FXYq7FXYq7FXYq7FXYq7FXYq7FXYq7FXYq7FXYq7FXYq7FXYq7FXYq7FXYq7FXYq7FXYq7F&#xA;XYq7FXYq7FXYq7FXYq7FXYq7FXYq7FXYq7FXYq7FXYq7FXYq7FXYq7FXYq7FXYq7FXYq7FXYq7FX&#xA;Yq7FXYq7FXYq7FXYq7FXYq7FXYq7FXYq7FXYq7FXYq7FXYq7FXYq7FXYq7FXYq7FXYq7FXYq7FXY&#xA;q7FXYq7FXYq7FXYq7FXYq7FXYq7FXYq7FXYq7FXYq7FXYq7FXYq7FXYq7FXYq7FXYq7FXYq7FXYq&#xA;7FXYq7FXYq7FXYq7FXYq7FXYq7FXYq7FXYq7FXYq7FXYq7FXYq7FXYq7FXYq7FXYq7FXYq7FXYq7&#xA;FXYq7FXYq7FXYq7FXYq7FXYq7FXYq7FXYq7FXYq7FXYq7FXYq7FXYq7FXYq7FXYq7FXYq7FXYq7F&#xA;XYq7FXYq7FXYq7FXYq7FXYq7FXYq7FXYq7FXYq7FXYq7FXYq7FXYq7FXYq7FXYq7FXYq7FXYq7FX&#xA;Yq7FXYq7FXYq7FXYq7FXYq7FXYq7FXYq7FXYq7FXYq7FXYq7FXYq7FXYq7FXYq7FXYq7FXYq7FXY&#xA;q7FXYq7FXYq7FXYq7FXYq7FXYq7FXYq7FXYq7FXYq7FXYq7FXYq7FXYq7FXYq7FXYq7FXYq7FXYq&#xA;7FXYq7FXYq7FXYq7FXYq7FXYq7FXYq7FXYq7FXYq7FXYq7FXYq7FXYq7FXYq7FXYq7FXYq7FXYq7&#xA;FXYq7FXYq7FXYq7FXYq7FXYq7FXYq7FXYq7FXYq7FXYq7FXYq7FXYq7FXYq7FXYq7FXYq7FXYq7F&#xA;XYq7FXYq7FXYq7FXYq7FXYq7FXYq7FXYq7FXYq7FXYq7FXYq7FXYq7FXYq7FXYq7FXYq7FXYq7FX&#xA;Yq7FXYq7FXYq7FXYq7FXYq7FXYq7FXYq7FXYq7FXYq7FXYq7FXYq7FXYq7FXYq7FXYq7FXYq7FXY&#xA;q7FXYq7FXYq7FXYq7FXYq7FXYq7FXYq7FXYq7FXYq7FXYq7FXYq7FXYq7FXYq7FXYq7FXYq7FXYq&#xA;7FXYq7FXYq7FXYq7FXYq7FXYq7FXYq7FXYq7FXYq7FXYq7FXYq7FXYq7FXYq7FXYq7FXYq7FXYq7&#xA;FXYq7FXYq7FXYq7FXYq7FXYq7FXYq7FXYq7FXYq7FXYq7FXYq7FXYq7FXYq7FXYq7FXYq7FXYq7F&#xA;XYq7FXYq7FXYq7FXYq7FXYq7FXYq7FXYq7FXYq7FXYq7FXYq7FXYq7FXYq7FXYq7FXYq7FXYq7FX&#xA;Yq7FXYq7FXYq7FXYq7FXYq7FXYq7FXYq7FXYq7FXYq7FXYq7FXYq7FXYq7FXYq7FXYq7FXYq7FXY&#xA;q7FXYq7FXYq7FXYq7FXYq7FXYq7FXYq7FXYq7FXYq7FXYq7FXYq7FXYq7FXYq7FXYq7FXYq7FXYq&#xA;7FXYq7FXYq7FXYq7FXYq7FXYq7FXYq7FXYq7FXYq7FXYq7FXYq7FXYq7FX//2Q==</xmpGImg:image>
               </rdf:li>
            </rdf:Alt>
         </xmp:Thumbnails>
      </rdf:Description>
      <rdf:Description rdf:about=""
            xmlns:xmpMM="http://ns.adobe.com/xap/1.0/mm/"
            xmlns:stRef="http://ns.adobe.com/xap/1.0/sType/ResourceRef#"
            xmlns:stEvt="http://ns.adobe.com/xap/1.0/sType/ResourceEvent#">
         <xmpMM:DocumentID>xmp.did:0180117407206811822ABEE474308FDE</xmpMM:DocumentID>
         <xmpMM:InstanceID>xmp.iid:0180117407206811822ABEE474308FDE</xmpMM:InstanceID>
         <xmpMM:DerivedFrom rdf:parseType="Resource">
            <stRef:instanceID>uuid:981E3EA93164DF118E6D90B556E55533</stRef:instanceID>
            <stRef:documentID>uuid:971E3EA93164DF118E6D90B556E55533</stRef:documentID>
            <stRef:originalDocumentID>uuid:971E3EA93164DF118E6D90B556E55533</stRef:originalDocumentID>
         </xmpMM:DerivedFrom>
         <xmpMM:OriginalDocumentID>uuid:971E3EA93164DF118E6D90B556E55533</xmpMM:OriginalDocumentID>
         <xmpMM:History>
            <rdf:Seq>
               <rdf:li rdf:parseType="Resource">
                  <stEvt:action>saved</stEvt:action>
                  <stEvt:instanceID>xmp.iid:0180117407206811822ABEE474308FDE</stEvt:instanceID>
                  <stEvt:when>2014-07-22T22:55:39+02:00</stEvt:when>
                  <stEvt:softwareAgent>Adobe Illustrator CS6 (Macintosh)</stEvt:softwareAgent>
                  <stEvt:changed>/</stEvt:changed>
               </rdf:li>
            </rdf:Seq>
         </xmpMM:History>
      </rdf:Description>
      <rdf:Description rdf:about=""
            xmlns:xmpTPg="http://ns.adobe.com/xap/1.0/t/pg/"
            xmlns:stDim="http://ns.adobe.com/xap/1.0/sType/Dimensions#"
            xmlns:xmpG="http://ns.adobe.com/xap/1.0/g/">
         <xmpTPg:MaxPageSize rdf:parseType="Resource">
            <stDim:w>92.984375</stDim:w>
            <stDim:h>53.005859</stDim:h>
            <stDim:unit>Pixels</stDim:unit>
         </xmpTPg:MaxPageSize>
         <xmpTPg:NPages>1</xmpTPg:NPages>
         <xmpTPg:HasVisibleTransparency>True</xmpTPg:HasVisibleTransparency>
         <xmpTPg:HasVisibleOverprint>False</xmpTPg:HasVisibleOverprint>
         <xmpTPg:SwatchGroups>
            <rdf:Seq>
               <rdf:li rdf:parseType="Resource">
                  <xmpG:groupName>Default Swatch Group</xmpG:groupName>
                  <xmpG:groupType>0</xmpG:groupType>
               </rdf:li>
            </rdf:Seq>
         </xmpTPg:SwatchGroups>
      </rdf:Description>
   </rdf:RDF>
</x:xmpmeta>
                                                                                                    
                                                                                                    
                                                                                                    
                                                                                                    
                                                                                                    
                                                                                                    
                                                                                                    
                                                                                                    
                                                                                                    
                                                                                                    
                                                                                                    
                                                                                                    
                                                                                                    
                                                                                                    
                                                                                                    
                                                                                                    
                                                                                                    
                                                                                                    
                                                                                                    
                                                                                                    
                           
<?xpacket end="w"?>
	</metadata>
<path fill="#FFFFFF" d="M1.053,35.774c-0.194,0-0.348,0.15-0.373,0.365L0,41.304l0.68,5.076c0.025,0.215,0.179,0.363,0.373,0.363
	c0.188,0,0.341-0.148,0.371-0.361l0,0v-0.001c0,0,0,0,0,0.001l0.806-5.078l-0.806-5.166C1.395,35.925,1.24,35.774,1.053,35.774z"/>
<path fill="#FFFFFF" d="M4.877,32.953c-0.032-0.222-0.191-0.375-0.387-0.375c-0.197,0-0.36,0.157-0.388,0.375
	c0,0.002-0.914,8.351-0.914,8.351l0.914,8.166c0.026,0.219,0.189,0.377,0.388,0.377c0.194,0,0.354-0.154,0.386-0.375l1.04-8.168
	L4.877,32.953z"/>
<path fill="#FFFFFF" d="M19.281,25.25c-0.375,0-0.685,0.308-0.702,0.697L17.85,41.312l0.729,9.929
	c0.019,0.388,0.327,0.694,0.702,0.694c0.373,0,0.683-0.308,0.704-0.696v0.003l0.823-9.93l-0.823-15.364
	C19.963,25.558,19.654,25.25,19.281,25.25z"/>
<path fill="#FFFFFF" d="M11.826,30.59c-0.288,0-0.523,0.23-0.547,0.537L10.46,41.308l0.819,9.849
	c0.022,0.305,0.259,0.534,0.547,0.534c0.284,0,0.52-0.229,0.545-0.534l0.932-9.849l-0.932-10.183
	C12.346,30.82,12.111,30.59,11.826,30.59z"/>
<path fill="#FFFFFF" d="M26.857,51.933c0.465,0,0.844-0.375,0.862-0.854l0.714-9.763L27.72,20.861
	c-0.019-0.48-0.396-0.855-0.862-0.855c-0.469,0-0.848,0.376-0.862,0.856c0,0.001-0.634,20.453-0.634,20.453l0.634,9.766
	C26.01,51.558,26.389,51.933,26.857,51.933z"/>
<path fill="#FFFFFF" d="M42.367,51.979c0.64,0,1.168-0.527,1.18-1.176v0.008v-0.008l0.498-9.481l-0.498-23.624
	c-0.011-0.647-0.54-1.175-1.18-1.175c-0.642,0-1.171,0.527-1.181,1.176l-0.444,23.614c0,0.016,0.444,9.496,0.444,9.496
	C41.197,51.452,41.727,51.979,42.367,51.979z"/>
<path fill="#FFFFFF" d="M34.553,51.942c0.557,0,1.006-0.447,1.021-1.018v0.008l0.605-9.615l-0.606-20.603
	c-0.016-0.57-0.465-1.016-1.021-1.016c-0.561,0-1.01,0.446-1.022,1.016l-0.538,20.604l0.539,9.611
	C33.543,51.495,33.992,51.942,34.553,51.942z"/>
<path fill="#FFFFFF" d="M15.539,51.853c0.331,0,0.599-0.266,0.624-0.614l0.878-9.931l-0.878-9.447
	c-0.024-0.35-0.292-0.612-0.624-0.612c-0.336,0-0.604,0.265-0.625,0.616l-0.773,9.443l0.773,9.93
	C14.936,51.587,15.203,51.853,15.539,51.853z"/>
<path fill="#FFFFFF" d="M8.143,51.308c0.242,0,0.438-0.19,0.466-0.455l0.986-9.547L8.61,31.397
	c-0.028-0.266-0.225-0.457-0.467-0.457c-0.245,0-0.44,0.192-0.466,0.457l-0.868,9.908l0.868,9.545
	C7.701,51.116,7.897,51.308,8.143,51.308z"/>
<path fill="#FFFFFF" d="M38.445,20.372c-0.604,0-1.09,0.481-1.102,1.097L36.851,41.32l0.492,9.552
	c0.012,0.607,0.496,1.089,1.102,1.089c0.604,0,1.086-0.479,1.101-1.096v0.008l0.552-9.552l-0.552-19.854
	C39.531,20.853,39.049,20.372,38.445,20.372z"/>
<path fill="#FFFFFF" d="M23.055,51.953c0.418,0,0.763-0.341,0.783-0.776l0.768-9.863l-0.768-18.877
	C23.817,22,23.473,21.66,23.055,21.66c-0.422,0-0.766,0.341-0.784,0.776c0,0.001-0.68,18.877-0.68,18.877l0.681,9.867
	C22.289,51.612,22.633,51.953,23.055,51.953z"/>
<path fill="#FFFFFF" d="M31.631,51.022v-0.006l0.66-9.699l-0.66-21.145c-0.016-0.525-0.43-0.937-0.941-0.937
	c-0.514,0-0.928,0.411-0.941,0.937l-0.586,21.143l0.587,9.705c0.014,0.521,0.428,0.932,0.94,0.932s0.924-0.411,0.941-0.934V51.022z"
	/>
<path fill="#FFFFFF" d="M81.549,29.129c-1.567,0-3.062,0.317-4.424,0.888c-0.91-10.308-9.555-18.394-20.099-18.394
	c-2.58,0-5.095,0.508-7.315,1.367c-0.863,0.334-1.093,0.678-1.102,1.345v36.301c0.01,0.699,0.553,1.282,1.235,1.352
	c0.029,0.003,31.499,0.019,31.703,0.019c6.315,0,11.437-5.12,11.437-11.438C92.985,34.251,87.865,29.129,81.549,29.129z"/>
<path fill="#FFFFFF" d="M46.272,14.303c-0.687,0-1.251,0.564-1.261,1.257l-0.516,25.765l0.517,9.351
	c0.009,0.683,0.573,1.246,1.26,1.246c0.686,0,1.249-0.563,1.259-1.256v0.011l0.562-9.352l-0.562-25.767
	C47.521,14.867,46.957,14.303,46.272,14.303z"/>
<rect x="0" y="5" opacity="0" fill="#FFFFFF" width="92.984" height="53.005"/>
</svg>
