<?xml version="1.0" encoding="utf-8"?>
<!-- Generator: Adobe Illustrator 16.0.0, SVG Export Plug-In . SVG Version: 6.00 Build 0)  -->
<!DOCTYPE svg PUBLIC "-//W3C//DTD SVG 1.1//EN" "http://www.w3.org/Graphics/SVG/1.1/DTD/svg11.dtd">
<svg version="1.1" id="Layer_1" xmlns="http://www.w3.org/2000/svg" xmlns:xlink="http://www.w3.org/1999/xlink" x="0px" y="0px"
	 width="380px" height="25px" viewBox="0 0 380 25" enable-background="new 0 0 380 25" xml:space="preserve">
<g enable-background="new    ">
	<path fill="#FFFFFF" d="M9.138,2.593c3.808,0,6.919,3.111,6.919,6.897v3.612c0,3.786-3.111,6.897-6.919,6.897H2.98
		c-0.414,0-0.696-0.283-0.696-0.696L2.24,3.289c0-0.348,0.326-0.696,0.74-0.696H9.138z M5.156,5.486v11.62h3.982
		c2.198,0,4.025-1.828,4.025-4.004V9.49c0-2.176-1.828-4.004-4.025-4.004H5.156z"/>
	<path fill="#FFFFFF" d="M30.213,20c-0.414,0-0.696-0.283-0.696-0.696L29.474,3.289c0-0.413,0.326-0.696,0.74-0.696h10.509
		c0.718,0,0.718,0.413,0.718,0.849v1.196c0,0.784-0.109,0.849-0.871,0.849h-8.159v3.852h7.246c0.414,0,0.696,0.305,0.696,0.718v1.48
		c0,0.413-0.283,0.718-0.696,0.718h-7.246v4.853h8.442c0.762,0,0.87,0.064,0.87,0.849v1.175c0,0.435,0,0.87-0.718,0.87H30.213z"/>
	<path fill="#FFFFFF" d="M67.935,5.748l-2.329,6.462l-2.241,6.201l-0.37,1.023C62.843,19.782,62.734,20,62.299,20h-1.915
		c-0.5,0-0.609-0.261-0.696-0.544l-1.501-4.33c-1.371-3.917-2.568-7.551-4.156-11.467c-0.087-0.152-0.087-0.305-0.087-0.37
		c0-0.457,0.239-0.696,0.718-0.696h1.697c0.436,0,0.544,0.283,0.696,0.565l4.287,12.686l4.243-12.686l-0.022,0.131
		c0-0.065,0.043-0.065,0.043-0.087c0.131-0.413,0.37-0.609,0.696-0.609h1.719c0.348,0,0.696,0.349,0.696,0.696
		C68.718,3.354,68.436,4.334,67.935,5.748z"/>
	<path fill="#FFFFFF" d="M96.322,12.972c0,4.004-3.416,7.225-7.594,7.225s-7.616-3.221-7.616-7.225V9.556
		c0-4.004,3.459-7.202,7.637-7.202c4.2,0,7.572,3.198,7.572,7.202V12.972z M93.384,9.556c0-2.437-2.11-4.438-4.656-4.438
		c-2.568,0-4.678,2.023-4.678,4.438v3.416c0,2.438,2.11,4.439,4.678,4.439c2.546,0,4.656-2.002,4.656-4.439V9.556z"/>
	<path fill="#FFFFFF" d="M118.115,2.593c1.958,0,3.677,1.719,3.677,3.699c0,1.653-0.892,2.611-2.132,3.46
		c0.457,1.218,0.892,2.35,1.328,3.568c0.696,1.914,1.414,3.851,2.176,5.787c0.239,0.588-0.087,0.893-0.675,0.893h-1.653
		c-0.457,0-0.587-0.261-0.696-0.544l-3.133-8.29c-1.501,0.783-2.829,1.523-4.396,2.328v5.657c0,0.436-0.021,0.849-0.696,0.849
		h-1.545c-0.414,0-0.674-0.348-0.674-0.696l-0.043-16.015c0-0.348,0.304-0.696,0.718-0.696H118.115z M112.61,5.486v4.744
		c1.719-0.849,5.592-2.764,6.049-3.481v0.021c0.087-0.131,0.13-0.283,0.13-0.457c0-0.457-0.348-0.827-0.849-0.827H112.61z"/>
	<path fill="#FFFFFF" d="M151.637,2.593c0.414,0,1.197-0.044,1.197,0.914v15.862c0,0.631-0.348,0.631-0.762,0.631h-1.284
		c-0.762,0-0.87-0.108-0.87-0.87V7.706c-1.501,1.915-2.938,3.765-4.504,5.614l0.022-0.044c-0.196,0.326-0.327,0.326-0.653,0.326
		h-0.849c-0.414,0-0.457-0.065-0.696-0.348l-4.46-5.549V19.13c0,0.762-0.109,0.87-0.871,0.87h-1.284
		c-0.414,0.021-0.718,0-0.718-0.588l-0.043-15.927c0-0.893,0.892-0.893,1.262-0.893h0.783c0.414,0,0.653,0.044,0.914,0.392
		l5.548,6.963l5.57-7.028c0.174-0.218,0.457-0.326,0.849-0.326H151.637z"/>
	<path fill="#FFFFFF" d="M192.027,2.593c1.959,0,3.678,1.719,3.678,3.699c0,1.653-0.893,2.611-2.133,3.46
		c0.457,1.218,0.893,2.35,1.328,3.568c0.696,1.914,1.414,3.851,2.176,5.787c0.239,0.588-0.087,0.893-0.675,0.893h-1.653
		c-0.457,0-0.588-0.261-0.696-0.544l-3.134-8.29c-1.501,0.783-2.828,1.523-4.395,2.328v5.657c0,0.436-0.021,0.849-0.696,0.849
		h-1.545c-0.414,0-0.674-0.348-0.674-0.696l-0.043-16.015c0-0.348,0.304-0.696,0.718-0.696H192.027z M186.523,5.486v4.744
		c1.719-0.849,5.592-2.764,6.049-3.481v0.021c0.087-0.131,0.131-0.283,0.131-0.457c0-0.457-0.349-0.827-0.85-0.827H186.523z"/>
	<path fill="#FFFFFF" d="M210.492,20c-0.413,0-0.695-0.283-0.695-0.696l-0.044-16.015c0-0.413,0.326-0.696,0.739-0.696h10.51
		c0.719,0,0.719,0.413,0.719,0.849v1.196c0,0.784-0.109,0.849-0.871,0.849h-8.159v3.852h7.245c0.414,0,0.697,0.305,0.697,0.718v1.48
		c0,0.413-0.283,0.718-0.697,0.718h-7.245v4.853h8.442c0.762,0,0.87,0.064,0.87,0.849v1.175c0,0.435,0,0.87-0.718,0.87H210.492z"/>
	<path fill="#FFFFFF" d="M249.215,8.163c0,0.021-0.021,0.196-0.021,0.218c-0.087,0.282-0.262,0.631-0.675,0.631h-1.458
		c-0.369,0-0.521-0.196-0.674-0.479c-0.24-0.675-0.393-1.197-0.762-1.697c-0.783-1.066-2.023-1.697-3.416-1.697
		c-2.328,0-4.243,1.915-4.243,4.265v3.786c0,2.35,1.915,4.265,4.243,4.265c1.393,0,2.611-0.631,3.459-1.74
		c0.436-0.588,0.609-1.153,0.783-1.872l-0.021,0.044c0.065-0.392,0.283-0.588,0.675-0.588h1.458c0.413,0,0.696,0.349,0.696,0.696
		c0,0.436-0.131,0.936-0.283,1.35c-0.979,2.785-3.808,4.896-6.767,4.896c-3.895,0-7.072-3.155-7.072-7.05V9.403
		c0-3.895,3.178-7.094,7.072-7.094C245.756,2.31,248.519,4.769,249.215,8.163z"/>
	<path fill="#FFFFFF" d="M277.536,12.972c0,4.004-3.416,7.225-7.594,7.225s-7.616-3.221-7.616-7.225V9.556
		c0-4.004,3.46-7.202,7.638-7.202c4.2,0,7.572,3.198,7.572,7.202V12.972z M274.599,9.556c0-2.437-2.11-4.438-4.656-4.438
		c-2.567,0-4.679,2.023-4.679,4.438v3.416c0,2.438,2.111,4.439,4.679,4.439c2.546,0,4.656-2.002,4.656-4.439V9.556z"/>
	<path fill="#FFFFFF" d="M299.33,2.593c1.958,0,3.677,1.719,3.677,3.699c0,1.653-0.892,2.611-2.132,3.46
		c0.457,1.218,0.892,2.35,1.327,3.568c0.696,1.914,1.414,3.851,2.176,5.787c0.239,0.588-0.087,0.893-0.675,0.893h-1.653
		c-0.457,0-0.587-0.261-0.696-0.544l-3.133-8.29c-1.502,0.783-2.829,1.523-4.396,2.328v5.657c0,0.436-0.021,0.849-0.695,0.849
		h-1.545c-0.414,0-0.675-0.348-0.675-0.696l-0.044-16.015c0-0.348,0.305-0.696,0.719-0.696H299.33z M293.824,5.486v4.744
		c1.72-0.849,5.593-2.764,6.05-3.481v0.021c0.087-0.131,0.13-0.283,0.13-0.457c0-0.457-0.348-0.827-0.848-0.827H293.824z"/>
	<path fill="#FFFFFF" d="M323.931,2.593c3.808,0,6.92,3.111,6.92,6.897v3.612c0,3.786-3.112,6.897-6.92,6.897h-6.157
		c-0.414,0-0.696-0.283-0.696-0.696l-0.044-16.015c0-0.348,0.326-0.696,0.74-0.696H323.931z M319.949,5.486v11.62h3.981
		c2.198,0,4.025-1.828,4.025-4.004V9.49c0-2.176-1.827-4.004-4.025-4.004H319.949z"/>
	<path fill="#FFFFFF" d="M354.906,18.955c-0.979,0.871-2.372,1.241-3.938,1.241h-1.653c-1.894,0-3.591-0.958-4.526-2.459
		c-0.326-0.479-0.522-0.958-0.609-1.415c-0.174-0.892-0.152-1.262-0.152-1.762v0.043c0-0.435,0.022-0.849,0.696-0.849h1.479
		c0.349,0,0.566,0.175,0.653,0.522c0.087,0.283,0.065,0.349,0.065,0.696c0,0.108,0.021,0.305,0.043,0.588
		c0.239,1.065,1.219,1.85,2.351,1.85h1.653c1.306,0,2.437-0.719,2.633-1.872c0.021-0.152,0.044-0.282,0.044-0.435
		c0.021-0.283,0.043-0.936-0.327-1.263c-0.609-0.521-1.937-0.739-3.503-1.109c-2.785-0.631-5.788-1.479-5.788-4.396V8.032
		c0-0.457-0.021-0.913,0.131-1.501l-0.021,0.021c0.457-2.415,2.698-4.178,5.179-4.178h1.653c1.306,0,2.546,0.479,3.524,1.262
		c0.979,0.784,1.589,2.285,1.523,3.961c-0.021,0.435-0.021,0.849-0.696,0.849h-1.436c-0.414,0-0.675-0.349-0.696-0.696
		c-0.065-1.85-0.827-2.546-2.22-2.546h-1.653c-1.11,0-2.133,0.805-2.372,1.915V7.097c-0.065,0.37-0.196,1.022,0.348,1.566
		c0.283,0.283,0.609,0.479,0.937,0.566l2.502,0.696c1.306,0.37,2.241,0.609,2.785,0.805c0.587,0.196,1.088,0.457,1.523,0.74
		c0.892,0.609,1.522,1.653,1.522,3.133C356.56,16.258,355.885,18.085,354.906,18.955z"/>
</g>
</svg>
