<?xml version="1.0" encoding="utf-8"?>
<!-- Generator: Adobe Illustrator 16.0.0, SVG Export Plug-In . SVG Version: 6.00 Build 0)  -->
<!DOCTYPE svg PUBLIC "-//W3C//DTD SVG 1.1//EN" "http://www.w3.org/Graphics/SVG/1.1/DTD/svg11.dtd">
<svg version="1.1" id="Layer_1" xmlns="http://www.w3.org/2000/svg" xmlns:xlink="http://www.w3.org/1999/xlink" x="0px" y="0px"
	 width="30px" height="30px" viewBox="0 0 30 30" enable-background="new 0 0 30 30" xml:space="preserve">
<path id="Facebook__x28_alt_x29__2_" fill="#FFFFFF" d="M27.491,6.673c0-2.188-1.976-4.164-4.164-4.164H6.673
	c-2.189,0-4.164,1.976-4.164,4.164v16.654c0,2.188,1.975,4.164,4.164,4.164h8.326v-9.438h-3.053V13.89h3.053v-1.623
	c0-2.797,2.102-5.316,4.686-5.316h3.365v4.164h-3.365c-0.369,0-0.799,0.447-0.799,1.116v1.659h4.164v4.164h-4.164v9.438h4.441
	c2.188,0,4.164-1.976,4.164-4.164V6.673z"/>
</svg>
