<?xml version="1.0" encoding="utf-8"?>
<!-- Generator: Adobe Illustrator 16.0.0, SVG Export Plug-In . SVG Version: 6.00 Build 0)  -->
<!DOCTYPE svg PUBLIC "-//W3C//DTD SVG 1.1//EN" "http://www.w3.org/Graphics/SVG/1.1/DTD/svg11.dtd">
<svg version="1.1" id="Layer_1" xmlns="http://www.w3.org/2000/svg" xmlns:xlink="http://www.w3.org/1999/xlink" x="0px" y="0px"
	 width="30px" height="30px" viewBox="0 0 30 30" enable-background="new 0 0 30 30" xml:space="preserve">
<path id="Twitter_3_" fill="#FFFFFF" d="M20.481,20.539h-5.467c-0.762,0-1.407-0.268-1.939-0.802
	c-0.531-0.534-0.795-1.18-0.795-1.944v-1.945h7.789c0.703,0,1.308-0.252,1.811-0.754c0.502-0.506,0.756-1.111,0.756-1.814
	c0-0.705-0.254-1.309-0.757-1.812c-0.506-0.503-1.111-0.754-1.817-0.754H12.28V6.692c0-0.761-0.272-1.411-0.811-1.954
	c-0.537-0.543-1.186-0.816-1.938-0.816c-0.774,0-1.434,0.269-1.97,0.8c-0.539,0.534-0.809,1.19-0.809,1.974v11.1
	c0,2.283,0.809,4.234,2.422,5.853c1.617,1.622,3.564,2.431,5.842,2.431h5.466c0.759,0,1.411-0.272,1.952-0.816
	c0.542-0.541,0.812-1.193,0.812-1.954c0-0.759-0.271-1.411-0.812-1.954C21.894,20.812,21.24,20.539,20.481,20.539z"/>
</svg>
